<svg width="164" height="72" viewBox="0 0 164 72" fill="none" xmlns="http://www.w3.org/2000/svg">
<path d="M23.088 71.96C18.608 71.96 14.672 71.128 11.28 69.464C7.952 67.736 5.36 65.336 3.504 62.264C1.648 59.128 0.72 55.448 0.72 51.224V37.976C0.72 33.688 1.648 30.008 3.504 26.936C5.36 23.864 7.952 21.496 11.28 19.832C14.672 18.104 18.608 17.24 23.088 17.24C29.744 17.24 35.056 18.968 39.024 22.424C42.992 25.816 45.072 30.456 45.264 36.344H33.264C33.072 33.592 32.08 31.48 30.288 30.008C28.56 28.472 26.16 27.704 23.088 27.704C19.888 27.704 17.36 28.6 15.504 30.392C13.648 32.12 12.72 34.616 12.72 37.88V51.224C12.72 54.488 13.648 57.016 15.504 58.808C17.36 60.6 19.888 61.496 23.088 61.496C26.16 61.496 28.56 60.76 30.288 59.288C32.08 57.752 33.072 55.608 33.264 52.856H45.264C45.072 58.744 42.992 63.416 39.024 66.872C35.056 70.264 29.744 71.96 23.088 71.96Z" fill="url(#paint0_linear_1_2)"/>
<path d="M88.4265 71C84.9705 71 81.9305 70.296 79.3065 68.888C76.7465 67.48 74.7305 65.496 73.2585 62.936C71.7865 60.312 71.0505 57.304 71.0505 53.912V11.768H54.1545V0.919998H83.0505V53.912C83.0505 55.832 83.5945 57.368 84.6825 58.52C85.8345 59.608 87.3705 60.152 89.2905 60.152H105.227V71H88.4265Z" fill="url(#paint1_linear_1_2)"/>
<path d="M112.581 71L131.013 43.736L113.829 18.2H127.365L135.525 31.16C136.037 31.928 136.485 32.792 136.869 33.752C137.317 34.712 137.669 35.48 137.925 36.056C138.181 35.48 138.533 34.712 138.981 33.752C139.429 32.792 139.877 31.928 140.325 31.16L148.581 18.2H162.117L144.933 43.736L163.269 71H149.637L140.517 56.504C140.005 55.672 139.525 54.776 139.077 53.816C138.629 52.856 138.245 52.088 137.925 51.512C137.669 52.088 137.317 52.856 136.869 53.816C136.421 54.776 135.941 55.672 135.429 56.504L126.117 71H112.581Z" fill="url(#paint2_linear_1_2)"/>
<defs>
<linearGradient id="paint0_linear_1_2" x1="81" y1="17" x2="81" y2="71" gradientUnits="userSpaceOnUse">
<stop stop-color="#CC00FF"/>
<stop stop-color="#DB00FF"/>
<stop offset="1" stop-color="#AE00CB"/>
</linearGradient>
<linearGradient id="paint1_linear_1_2" x1="81" y1="1" x2="81" y2="71" gradientUnits="userSpaceOnUse">
<stop stop-color="#FFB526"/>
<stop offset="1" stop-color="#EC9C00"/>
</linearGradient>
<linearGradient id="paint2_linear_1_2" x1="81" y1="16" x2="81" y2="71" gradientUnits="userSpaceOnUse">
<stop stop-color="#0066FF"/>
<stop offset="1" stop-color="#3B85F3"/>
</linearGradient>
</defs>
</svg>
